<mxfile host="Electron" agent="Mozilla/5.0 (Windows NT 10.0; Win64; x64) AppleWebKit/537.36 (KHTML, like Gecko) draw.io/25.0.2 Chrome/128.0.6613.186 Electron/32.2.5 Safari/537.36" version="25.0.2">
  <diagram name="Page-1" id="gzd1dI1hAum2lovBzy6_">
    <mxGraphModel dx="1050" dy="621" grid="1" gridSize="10" guides="1" tooltips="1" connect="1" arrows="1" fold="1" page="1" pageScale="1" pageWidth="1169" pageHeight="827" math="0" shadow="0">
      <root>
        <mxCell id="0" />
        <mxCell id="1" parent="0" />
        <mxCell id="ZeVBzo_ftVyGQTi14xyd-2" value="" style="html=1;points=[[0,0,0,0,5],[0,1,0,0,-5],[1,0,0,0,5],[1,1,0,0,-5]];perimeter=orthogonalPerimeter;outlineConnect=0;targetShapes=umlLifeline;portConstraint=eastwest;newEdgeStyle={&quot;curved&quot;:0,&quot;rounded&quot;:0};" parent="1" vertex="1">
          <mxGeometry x="371" y="250" width="30" height="250" as="geometry" />
        </mxCell>
        <mxCell id="ZeVBzo_ftVyGQTi14xyd-5" value="Login" style="shape=umlBoundary;whiteSpace=wrap;html=1;" parent="1" vertex="1">
          <mxGeometry x="535" y="130" width="100" height="80" as="geometry" />
        </mxCell>
        <mxCell id="ZeVBzo_ftVyGQTi14xyd-7" value="" style="html=1;points=[[0,0,0,0,5],[0,1,0,0,-5],[1,0,0,0,5],[1,1,0,0,-5]];perimeter=orthogonalPerimeter;outlineConnect=0;targetShapes=umlLifeline;portConstraint=eastwest;newEdgeStyle={&quot;curved&quot;:0,&quot;rounded&quot;:0};" parent="1" vertex="1">
          <mxGeometry x="580" y="250" width="30" height="250" as="geometry" />
        </mxCell>
        <mxCell id="ZeVBzo_ftVyGQTi14xyd-8" value="" style="html=1;points=[[0,0,0,0,5],[0,1,0,0,-5],[1,0,0,0,5],[1,1,0,0,-5]];perimeter=orthogonalPerimeter;outlineConnect=0;targetShapes=umlLifeline;portConstraint=eastwest;newEdgeStyle={&quot;curved&quot;:0,&quot;rounded&quot;:0};" parent="1" vertex="1">
          <mxGeometry x="754" y="540" width="30" height="250" as="geometry" />
        </mxCell>
        <mxCell id="ZeVBzo_ftVyGQTi14xyd-9" value="Signup" style="shape=umlBoundary;whiteSpace=wrap;html=1;" parent="1" vertex="1">
          <mxGeometry x="710" y="130" width="100" height="80" as="geometry" />
        </mxCell>
        <mxCell id="ZeVBzo_ftVyGQTi14xyd-10" value="" style="html=1;points=[[0,0,0,0,5],[0,1,0,0,-5],[1,0,0,0,5],[1,1,0,0,-5]];perimeter=orthogonalPerimeter;outlineConnect=0;targetShapes=umlLifeline;portConstraint=eastwest;newEdgeStyle={&quot;curved&quot;:0,&quot;rounded&quot;:0};" parent="1" vertex="1">
          <mxGeometry x="924" y="250" width="30" height="250" as="geometry" />
        </mxCell>
        <mxCell id="ZeVBzo_ftVyGQTi14xyd-13" value="" style="shape=umlLifeline;perimeter=lifelinePerimeter;whiteSpace=wrap;html=1;container=1;dropTarget=0;collapsible=0;recursiveResize=0;outlineConnect=0;portConstraint=eastwest;newEdgeStyle={&quot;curved&quot;:0,&quot;rounded&quot;:0};participant=umlActor;" parent="1" vertex="1">
          <mxGeometry x="376" y="140" width="20" height="110" as="geometry" />
        </mxCell>
        <mxCell id="ZeVBzo_ftVyGQTi14xyd-15" value="" style="endArrow=none;dashed=1;html=1;strokeWidth=2;rounded=0;entryX=0.587;entryY=1.002;entryDx=0;entryDy=0;entryPerimeter=0;" parent="1" source="ZeVBzo_ftVyGQTi14xyd-7" target="ZeVBzo_ftVyGQTi14xyd-5" edge="1">
          <mxGeometry width="50" height="50" relative="1" as="geometry">
            <mxPoint x="590" y="360" as="sourcePoint" />
            <mxPoint x="640" y="310" as="targetPoint" />
          </mxGeometry>
        </mxCell>
        <mxCell id="ZeVBzo_ftVyGQTi14xyd-16" value="" style="endArrow=none;dashed=1;html=1;strokeWidth=2;rounded=0;" parent="1" source="ZeVBzo_ftVyGQTi14xyd-8" edge="1">
          <mxGeometry width="50" height="50" relative="1" as="geometry">
            <mxPoint x="604" y="260" as="sourcePoint" />
            <mxPoint x="770" y="210" as="targetPoint" />
          </mxGeometry>
        </mxCell>
        <mxCell id="ZeVBzo_ftVyGQTi14xyd-17" value="" style="endArrow=none;dashed=1;html=1;strokeWidth=2;rounded=0;entryX=0.59;entryY=1.035;entryDx=0;entryDy=0;entryPerimeter=0;" parent="1" source="ZeVBzo_ftVyGQTi14xyd-10" edge="1">
          <mxGeometry width="50" height="50" relative="1" as="geometry">
            <mxPoint x="780" y="260" as="sourcePoint" />
            <mxPoint x="939.0000000000002" y="212.80000000000007" as="targetPoint" />
          </mxGeometry>
        </mxCell>
        <mxCell id="ZeVBzo_ftVyGQTi14xyd-18" value="User" style="text;html=1;align=center;verticalAlign=middle;whiteSpace=wrap;rounded=0;" parent="1" vertex="1">
          <mxGeometry x="340" y="175" width="60" height="30" as="geometry" />
        </mxCell>
        <mxCell id="ZeVBzo_ftVyGQTi14xyd-19" value="" style="endArrow=classic;html=1;rounded=0;entryX=0;entryY=0;entryDx=0;entryDy=5;entryPerimeter=0;" parent="1" source="ZeVBzo_ftVyGQTi14xyd-2" target="ZeVBzo_ftVyGQTi14xyd-7" edge="1">
          <mxGeometry width="50" height="50" relative="1" as="geometry">
            <mxPoint x="480" y="220" as="sourcePoint" />
            <mxPoint x="580" y="220" as="targetPoint" />
          </mxGeometry>
        </mxCell>
        <mxCell id="ZeVBzo_ftVyGQTi14xyd-20" value="insert Login details" style="edgeLabel;html=1;align=center;verticalAlign=middle;resizable=0;points=[];" parent="ZeVBzo_ftVyGQTi14xyd-19" vertex="1" connectable="0">
          <mxGeometry x="0.0032" relative="1" as="geometry">
            <mxPoint as="offset" />
          </mxGeometry>
        </mxCell>
        <mxCell id="ZeVBzo_ftVyGQTi14xyd-21" value="" style="endArrow=classic;html=1;rounded=0;entryX=0;entryY=0;entryDx=0;entryDy=5;entryPerimeter=0;exitX=1;exitY=0;exitDx=0;exitDy=5;exitPerimeter=0;" parent="1" source="ZeVBzo_ftVyGQTi14xyd-7" target="ZeVBzo_ftVyGQTi14xyd-10" edge="1">
          <mxGeometry width="50" height="50" relative="1" as="geometry">
            <mxPoint x="411" y="265" as="sourcePoint" />
            <mxPoint x="590" y="265" as="targetPoint" />
          </mxGeometry>
        </mxCell>
        <mxCell id="ZeVBzo_ftVyGQTi14xyd-22" value="Auth with Login details" style="edgeLabel;html=1;align=center;verticalAlign=middle;resizable=0;points=[];" parent="ZeVBzo_ftVyGQTi14xyd-21" vertex="1" connectable="0">
          <mxGeometry x="0.0032" relative="1" as="geometry">
            <mxPoint x="-87" as="offset" />
          </mxGeometry>
        </mxCell>
        <mxCell id="ZeVBzo_ftVyGQTi14xyd-23" value="&lt;div&gt;User&lt;/div&gt;Database" style="ellipse;shape=umlControl;whiteSpace=wrap;html=1;" parent="1" vertex="1">
          <mxGeometry x="900" y="125.43" width="74" height="84.57" as="geometry" />
        </mxCell>
        <mxCell id="ZeVBzo_ftVyGQTi14xyd-24" value="" style="endArrow=classic;html=1;rounded=0;entryX=1;entryY=0.28;entryDx=0;entryDy=0;entryPerimeter=0;dashed=1;" parent="1" source="ZeVBzo_ftVyGQTi14xyd-10" target="ZeVBzo_ftVyGQTi14xyd-7" edge="1">
          <mxGeometry width="50" height="50" relative="1" as="geometry">
            <mxPoint x="620" y="265" as="sourcePoint" />
            <mxPoint x="934" y="265" as="targetPoint" />
          </mxGeometry>
        </mxCell>
        <mxCell id="ZeVBzo_ftVyGQTi14xyd-25" value="Authentication success" style="edgeLabel;html=1;align=center;verticalAlign=middle;resizable=0;points=[];" parent="ZeVBzo_ftVyGQTi14xyd-24" vertex="1" connectable="0">
          <mxGeometry x="0.0032" relative="1" as="geometry">
            <mxPoint x="84" as="offset" />
          </mxGeometry>
        </mxCell>
        <mxCell id="ZeVBzo_ftVyGQTi14xyd-32" value="&lt;hr&gt;" style="edgeLabel;html=1;align=center;verticalAlign=middle;resizable=0;points=[];" parent="ZeVBzo_ftVyGQTi14xyd-24" vertex="1" connectable="0">
          <mxGeometry x="0.6338" y="-1" relative="1" as="geometry">
            <mxPoint as="offset" />
          </mxGeometry>
        </mxCell>
        <mxCell id="ZeVBzo_ftVyGQTi14xyd-26" value="" style="endArrow=classic;html=1;rounded=0;dashed=1;" parent="1" source="ZeVBzo_ftVyGQTi14xyd-10" target="ZeVBzo_ftVyGQTi14xyd-7" edge="1">
          <mxGeometry width="50" height="50" relative="1" as="geometry">
            <mxPoint x="934" y="330" as="sourcePoint" />
            <mxPoint x="620" y="330" as="targetPoint" />
          </mxGeometry>
        </mxCell>
        <mxCell id="ZeVBzo_ftVyGQTi14xyd-27" value="User doesn&#39;t exist" style="edgeLabel;html=1;align=center;verticalAlign=middle;resizable=0;points=[];" parent="ZeVBzo_ftVyGQTi14xyd-26" vertex="1" connectable="0">
          <mxGeometry x="0.0032" relative="1" as="geometry">
            <mxPoint x="84" as="offset" />
          </mxGeometry>
        </mxCell>
        <mxCell id="ZeVBzo_ftVyGQTi14xyd-28" value="" style="endArrow=classic;html=1;rounded=0;dashed=1;" parent="1" target="ZeVBzo_ftVyGQTi14xyd-7" edge="1">
          <mxGeometry width="50" height="50" relative="1" as="geometry">
            <mxPoint x="920" y="420" as="sourcePoint" />
            <mxPoint x="630" y="340" as="targetPoint" />
          </mxGeometry>
        </mxCell>
        <mxCell id="ZeVBzo_ftVyGQTi14xyd-29" value="User alrealdy exist" style="edgeLabel;html=1;align=center;verticalAlign=middle;resizable=0;points=[];" parent="ZeVBzo_ftVyGQTi14xyd-28" vertex="1" connectable="0">
          <mxGeometry x="0.0032" relative="1" as="geometry">
            <mxPoint x="84" as="offset" />
          </mxGeometry>
        </mxCell>
        <mxCell id="ZeVBzo_ftVyGQTi14xyd-30" value="" style="endArrow=classic;html=1;rounded=0;dashed=1;" parent="1" target="ZeVBzo_ftVyGQTi14xyd-7" edge="1">
          <mxGeometry width="50" height="50" relative="1" as="geometry">
            <mxPoint x="920" y="350" as="sourcePoint" />
            <mxPoint x="640" y="350" as="targetPoint" />
          </mxGeometry>
        </mxCell>
        <mxCell id="ZeVBzo_ftVyGQTi14xyd-31" value="Authentication failed" style="edgeLabel;html=1;align=center;verticalAlign=middle;resizable=0;points=[];" parent="ZeVBzo_ftVyGQTi14xyd-30" vertex="1" connectable="0">
          <mxGeometry x="0.0032" relative="1" as="geometry">
            <mxPoint x="84" as="offset" />
          </mxGeometry>
        </mxCell>
      </root>
    </mxGraphModel>
  </diagram>
</mxfile>
